<?xml version="1.0" encoding="UTF-8"?>
<svg id="Layer_1" xmlns="http://www.w3.org/2000/svg" version="1.1" viewBox="0 0 2217.8 934.7">
  <!-- Generator: Adobe Illustrator 30.1.0, SVG Export Plug-In . SVG Version: 2.1.1 Build 136)  -->
  <defs>
    <style>
      .st0 {
        fill: #111;
      }

      .st1 {
        fill: #96d3e5;
      }

      .st2 {
        fill: #999;
      }
    </style>
  </defs>
  <path class="st1" d="M2038.8,294.6c-3.7-146.9-121.9-265.8-268.6-270.1V0h-106.4v934.7h106.4v-48.2c38.6,15.7,80.1,23.9,122.3,23.9,179.4,0,325.2-145.8,325.2-325.2s-72.4-236.9-179-290.5ZM1770.3,403.2c43.1-28.9,94.5-42.6,149.3-35.3-25.4,60.7-83.1,101.4-149.3,104.7v-69.4ZM1927.9,261.9c-53.4-6.5-107.9,1.5-157.7,22v-152.9c76.9,3.7,140.4,58.4,157.7,130.9ZM1892.6,804c-43.9,0-86.6-13.1-122.3-37.3v-187.8c110.5-3.2,207.2-70.9,248.3-172.7,56.6,39.8,93,105.7,93,179,0,120.6-98.4,218.8-219,218.8Z"/>
  <g>
    <g>
      <path class="st0" d="M88.8,530.3c-17.2,0-32.5-2.9-45.8-8.7-13.3-5.8-23.8-14.6-31.5-26.4-7.7-11.8-11.5-26.6-11.5-44.4s2.6-27.7,7.9-38c5.3-10.3,12.5-18.7,21.8-25.1,9.3-6.4,19.9-11.3,32-14.7,12.1-3.3,25-5.6,38.7-6.8,15.4-1.4,27.7-2.9,37.1-4.5,9.4-1.6,16.2-3.9,20.5-6.9,4.3-3,6.4-7.2,6.4-12.7v-.9c0-9-3.1-16-9.3-20.9-6.2-4.9-14.6-7.4-25.1-7.4s-20.5,2.5-27.4,7.4c-6.9,4.9-11.3,11.7-13.2,20.4l-79.3-2.8c2.3-16.4,8.4-31.1,18.2-44,9.8-13,23.3-23.1,40.4-30.6,17.2-7.4,37.8-11.2,62-11.2s33.1,2,47.6,6.1c14.5,4,27.2,9.9,38,17.6,10.8,7.7,19.1,17.1,25.1,28.2,5.9,11.1,8.9,23.9,8.9,38.2v183.6h-80.9v-37.6h-2.1c-4.8,9.1-10.9,16.9-18.4,23.2-7.4,6.3-16.2,11.1-26.2,14.2-10,3.2-21.3,4.7-33.8,4.7ZM115.3,474c9.3,0,17.6-1.9,25.1-5.6,7.4-3.7,13.4-8.9,17.8-15.6,4.5-6.6,6.7-14.3,6.7-23.1v-25.7c-2.5,1.3-5.4,2.5-8.9,3.5-3.5,1.1-7.2,2.1-11.3,3-4.1.9-8.3,1.8-12.7,2.5-4.3.7-8.5,1.3-12.5,1.9-8.1,1.3-15,3.3-20.7,6-5.7,2.7-10,6.2-13,10.5-3,4.3-4.5,9.3-4.5,15.2,0,8.9,3.2,15.7,9.6,20.4,6.4,4.7,14.5,7,24.4,7Z"/>
      <path class="st0" d="M379,632.6c-25.7,0-47.6-3.6-65.9-10.7-18.3-7.2-32.6-16.9-43.1-29.4-10.4-12.4-16.7-26.5-18.8-42.2l81.4-4.6c1.5,5.5,4.4,10.3,8.5,14.4,4.2,4.1,9.6,7.3,16.4,9.5,6.7,2.2,14.7,3.3,23.8,3.3,14.4,0,26.3-3.5,35.8-10.5,9.4-7,14.2-19.1,14.2-36.5v-47.5h-3c-3.4,8.3-8.6,15.8-15.5,22.3-6.9,6.6-15.5,11.7-25.8,15.5-10.3,3.8-22,5.6-35.3,5.6-19.7,0-37.7-4.6-54.1-13.8-16.4-9.2-29.4-23.5-39.2-42.9-9.8-19.4-14.7-44.4-14.7-75s5-57.5,15.1-78c10.1-20.5,23.3-35.6,39.6-45.5,16.4-9.8,34-14.8,52.8-14.8s26.3,2.4,36.5,7.3c10.1,4.9,18.5,11.1,25.1,18.7,6.6,7.6,11.5,15.5,14.9,23.7h2.5v-46.2h85.6v271.1c0,22.9-5.7,42.1-17.2,57.8-11.5,15.7-27.5,27.6-48.2,35.8-20.6,8.1-44.5,12.2-71.6,12.2ZM381.6,459.4c10.4,0,19.3-2.8,26.7-8.3,7.4-5.5,13.1-13.4,17.1-23.7,4-10.3,6-22.7,6-37.1s-2-27.3-5.9-37.9c-3.9-10.6-9.6-18.8-17.1-24.5-7.4-5.7-16.4-8.6-26.8-8.6s-19.7,2.9-27.1,8.8c-7.4,5.9-13,14.1-16.8,24.7-3.8,10.6-5.7,23.1-5.7,37.5s1.9,26.8,5.8,37.1c3.9,10.3,9.5,18.2,16.8,23.7,7.3,5.5,16.3,8.3,27,8.3Z"/>
      <path class="st0" d="M647.3,530.8c-28.3,0-52.6-5.6-73.1-16.8-20.5-11.2-36.2-27.2-47.1-48-11-20.8-16.4-45.6-16.4-74.3s5.5-52.3,16.5-73.2c11-20.9,26.5-37.2,46.6-48.9,20-11.7,43.7-17.5,70.9-17.5s36.8,3,52.7,9c15.9,6,29.7,14.8,41.3,26.5,11.6,11.7,20.6,26.2,27.1,43.3,6.4,17.2,9.7,36.8,9.7,59v21.5h-234.7v-49.9h154.7c-.1-9.1-2.3-17.3-6.5-24.4-4.2-7.1-10-12.7-17.3-16.8-7.3-4-15.7-6.1-25.2-6.1s-18.2,2.1-25.8,6.4c-7.6,4.3-13.7,10.1-18.1,17.4-4.5,7.3-6.8,15.6-7,24.9v50.8c0,11,2.2,20.7,6.5,28.9,4.3,8.3,10.5,14.7,18.5,19.3,8,4.6,17.5,6.9,28.5,6.9s14.5-1.1,20.7-3.2c6.2-2.1,11.5-5.2,16-9.3,4.5-4.1,7.8-9.1,10-15.1l78.9,2.3c-3.3,17.7-10.5,33.1-21.5,46.2-11.1,13.1-25.6,23.2-43.5,30.4-17.9,7.2-38.7,10.8-62.2,10.8Z"/>
      <path class="st0" d="M856.1,371.7v154h-86V255.7h81.8v49.6h3c6-16.5,16.2-29.5,30.6-38.9,14.4-9.4,31.6-14.2,51.5-14.2s35.5,4.2,49.5,12.7c14,8.5,24.9,20.3,32.7,35.5,7.8,15.2,11.6,32.9,11.5,53.2v172.1h-86v-155.3c.1-15-3.7-26.7-11.3-35.2-7.7-8.4-18.3-12.7-31.9-12.7s-17,2-23.8,5.9c-6.9,3.9-12.1,9.5-15.8,16.8-3.7,7.3-5.6,16.1-5.7,26.4Z"/>
      <path class="st0" d="M1133.3,529.6c-19.9,0-38-5.2-54.3-15.5-16.3-10.3-29.3-25.8-39-46.4-9.7-20.6-14.6-46.2-14.6-76.8s5-57.9,15.1-78.4c10.1-20.5,23.3-35.7,39.6-45.5,16.4-9.8,34-14.8,52.8-14.8s26.3,2.4,36.4,7.3c10.1,4.9,18.4,11.1,25,18.7,6.6,7.6,11.5,15.5,14.9,23.7h1.8v-136.3h86v360.1h-85.1v-43.8h-2.6c-3.6,8.3-8.8,16.1-15.5,23.4-6.7,7.3-15,13.1-25.1,17.6-10,4.5-21.8,6.7-35.4,6.7ZM1163.2,462.6c10.4,0,19.3-3,26.7-8.9,7.4-5.9,13.1-14.3,17.1-25.1,4-10.8,6-23.4,6-38s-2-27.5-5.9-38.2c-3.9-10.7-9.6-18.9-17.1-24.6-7.4-5.7-16.4-8.6-26.8-8.6s-19.7,2.9-27.1,8.8c-7.4,5.9-13,14.1-16.8,24.8-3.8,10.7-5.7,23.3-5.7,37.8s1.9,27.2,5.8,38c3.9,10.8,9.5,19.1,16.8,25.1,7.3,5.9,16.3,8.9,27,8.9Z"/>
      <path class="st0" d="M1378.1,530.3c-17.2,0-32.5-2.9-45.8-8.7-13.3-5.8-23.8-14.6-31.5-26.4-7.7-11.8-11.5-26.6-11.5-44.4s2.6-27.7,7.9-38c5.3-10.3,12.5-18.7,21.8-25.1,9.3-6.4,19.9-11.3,32-14.7,12.1-3.3,25-5.6,38.7-6.8,15.4-1.4,27.7-2.9,37.1-4.5,9.4-1.6,16.2-3.9,20.5-6.9,4.3-3,6.4-7.2,6.4-12.7v-.9c0-9-3.1-16-9.3-20.9-6.2-4.9-14.6-7.4-25.1-7.4s-20.5,2.5-27.4,7.4c-6.9,4.9-11.3,11.7-13.2,20.4l-79.3-2.8c2.3-16.4,8.4-31.1,18.2-44,9.8-13,23.3-23.1,40.4-30.6,17.2-7.4,37.8-11.2,62-11.2s33.1,2,47.6,6.1c14.5,4,27.2,9.9,38,17.6,10.8,7.7,19.1,17.1,25.1,28.2,5.9,11.1,8.9,23.9,8.9,38.2v183.6h-80.9v-37.6h-2.1c-4.8,9.1-10.9,16.9-18.4,23.2-7.4,6.3-16.2,11.1-26.2,14.2-10,3.2-21.3,4.7-33.8,4.7ZM1404.7,474c9.3,0,17.6-1.9,25.1-5.6,7.4-3.7,13.4-8.9,17.8-15.6,4.5-6.6,6.7-14.3,6.7-23.1v-25.7c-2.5,1.3-5.4,2.5-8.9,3.5-3.5,1.1-7.2,2.1-11.3,3-4.1.9-8.3,1.8-12.7,2.5-4.3.7-8.5,1.3-12.5,1.9-8.1,1.3-15,3.3-20.7,6-5.7,2.7-10,6.2-13,10.5-3,4.3-4.5,9.3-4.5,15.2,0,8.9,3.2,15.7,9.6,20.4,6.4,4.7,14.5,7,24.4,7Z"/>
    </g>
    <g>
      <path class="st2" d="M770.1,766v-180.1h15.7v70.8h1.4c1.8-4,4.3-8.2,7.6-12.5,3.3-4.3,7.7-7.9,13.1-10.8,5.4-2.9,12.3-4.4,20.5-4.4s20.8,2.9,29.2,8.8c8.4,5.8,14.9,14,19.6,24.4,4.7,10.5,7,22.6,7,36.5s-2.3,26.2-7,36.7c-4.7,10.5-11.2,18.7-19.5,24.5-8.4,5.9-18,8.8-29.1,8.8s-15.1-1.5-20.5-4.4c-5.5-2.9-9.9-6.6-13.2-10.9-3.3-4.3-5.9-8.5-7.7-12.6h-1.9v25.1h-15.2ZM785.6,698.5c0,10.9,1.6,20.6,4.9,29,3.3,8.4,7.9,15,14.1,19.8,6.1,4.8,13.6,7.2,22.3,7.2s16.6-2.5,22.8-7.4c6.2-5,10.9-11.7,14.2-20.1,3.2-8.4,4.8-17.9,4.8-28.4s-1.6-19.7-4.8-28.1c-3.2-8.3-7.9-14.9-14.1-19.8-6.2-4.9-13.8-7.3-22.9-7.3s-16.3,2.4-22.4,7.1c-6.1,4.7-10.8,11.2-14,19.5-3.2,8.3-4.8,17.8-4.8,28.6Z"/>
      <path class="st2" d="M944.1,769.1c-8.2,0-15.6-1.6-22.3-4.8-6.7-3.2-12.1-7.8-16.1-13.9-4-6.1-6-13.4-6-22.1s1.3-12.3,3.8-16.9c2.5-4.6,6.1-8.3,10.7-11.3,4.6-2.9,10.1-5.2,16.4-6.9,6.3-1.7,13.3-3,20.9-4,7.6-.9,14-1.8,19.2-2.5,5.2-.7,9.2-1.8,12-3.3,2.8-1.5,4.1-4,4.1-7.4v-3.2c0-9.2-2.7-16.5-8.2-21.8-5.5-5.3-13.4-8-23.6-8s-17.7,2.1-23.8,6.4c-6.1,4.3-10.4,9.3-12.9,15.1l-14.9-5.4c3-7.4,7.3-13.3,12.7-17.7,5.4-4.4,11.4-7.6,18.1-9.6,6.7-2,13.5-2.9,20.3-2.9s10.5.7,16.1,2c5.6,1.3,10.8,3.7,15.6,7,4.8,3.3,8.7,7.9,11.7,13.8,3,5.9,4.5,13.4,4.5,22.4v91.7h-15.7v-21.4h-1c-1.9,4-4.7,7.9-8.4,11.6-3.7,3.8-8.3,6.8-13.9,9.2-5.6,2.4-12.1,3.6-19.6,3.6ZM946.2,754.7c8.3,0,15.5-1.8,21.6-5.5,6.1-3.7,10.8-8.6,14.1-14.7,3.3-6.1,5-12.9,5-20.3v-19.5c-1.2,1.1-3.1,2.1-5.8,3-2.7.9-5.9,1.7-9.4,2.3-3.5.7-7.1,1.2-10.6,1.7s-6.7.9-9.5,1.2c-7.6.9-14.1,2.4-19.5,4.4-5.4,2-9.5,4.7-12.4,8.2-2.9,3.5-4.3,8-4.3,13.4,0,8.2,2.9,14.6,8.8,19,5.9,4.5,13.2,6.7,22.1,6.7Z"/>
      <path class="st2" d="M1031.8,766v-135.1h15.2v20.8h1.1c2.7-6.8,7.4-12.3,14.1-16.5,6.7-4.2,14.3-6.3,22.8-6.3s2.7,0,4.3,0c1.6,0,2.9.1,4,.2v15.9c-.7-.1-1.9-.3-3.7-.5-1.8-.2-3.7-.4-5.7-.4-7,0-13.3,1.5-18.8,4.4-5.5,3-9.8,7.1-13,12.3-3.2,5.2-4.7,11.2-4.7,17.9v87.2h-15.7Z"/>
      <path class="st2" d="M1107.7,766v-135.1h15.2v20.8h1.1c2.7-6.8,7.4-12.3,14.1-16.5,6.7-4.2,14.3-6.3,22.8-6.3s2.7,0,4.3,0c1.6,0,2.9.1,4,.2v15.9c-.7-.1-1.9-.3-3.7-.5-1.8-.2-3.7-.4-5.7-.4-7,0-13.3,1.5-18.8,4.4-5.5,3-9.8,7.1-13,12.3-3.2,5.2-4.7,11.2-4.7,17.9v87.2h-15.7Z"/>
      <path class="st2" d="M1234,768.8c-12.6,0-23.5-2.9-32.7-8.8-9.2-5.9-16.3-14.1-21.3-24.5-5-10.5-7.5-22.5-7.5-36.2s2.5-25.7,7.5-36.3c5-10.6,12-18.9,20.8-24.9,8.9-6,19.2-9,30.8-9s14.4,1.3,21.2,4c6.8,2.7,12.9,6.7,18.3,12.2,5.4,5.5,9.7,12.4,12.9,20.7,3.2,8.3,4.7,18.1,4.7,29.4v7.7h-105.5v-13.8h89.5c0-8.7-1.7-16.5-5.2-23.4-3.5-6.9-8.3-12.4-14.5-16.5-6.2-4-13.3-6.1-21.4-6.1s-16.1,2.3-22.6,6.9c-6.5,4.6-11.6,10.6-15.3,18.1-3.7,7.5-5.5,15.7-5.6,24.6v8.3c0,10.7,1.9,20.1,5.6,28.1s9,14.2,15.9,18.6c6.9,4.4,15,6.6,24.4,6.6s12-1,16.8-3c4.8-2,8.9-4.7,12.2-8,3.3-3.4,5.8-7.1,7.5-11.1l14.9,4.8c-2.1,5.7-5.4,10.9-10.1,15.7-4.7,4.8-10.5,8.7-17.4,11.6-6.9,2.9-14.9,4.4-24,4.4Z"/>
      <path class="st2" d="M1319,607.7c-3.2,0-6-1.1-8.3-3.3-2.3-2.2-3.4-4.9-3.4-8s1.2-5.8,3.5-8c2.3-2.2,5.1-3.3,8.2-3.3s6,1.1,8.3,3.3c2.3,2.2,3.4,4.9,3.4,8s-1.2,5.8-3.5,8c-2.3,2.2-5.1,3.3-8.2,3.3ZM1311,766v-135.1h15.7v135.1h-15.7Z"/>
      <path class="st2" d="M1355.9,766v-135.1h15.2v20.8h1.1c2.7-6.8,7.4-12.3,14.1-16.5,6.7-4.2,14.3-6.3,22.8-6.3s2.7,0,4.3,0c1.6,0,2.9.1,4,.2v15.9c-.7-.1-1.9-.3-3.7-.5-1.8-.2-3.7-.4-5.7-.4-7,0-13.3,1.5-18.8,4.4-5.5,3-9.8,7.1-13,12.3-3.2,5.2-4.7,11.2-4.7,17.9v87.2h-15.7Z"/>
      <path class="st2" d="M1480.1,768.8c-11.7,0-22-3-30.9-8.9-8.9-5.9-15.9-14.1-21-24.6-5-10.5-7.6-22.6-7.6-36.3s2.5-26,7.6-36.5c5-10.5,12-18.7,21-24.6,8.9-5.9,19.2-8.8,30.9-8.8s22,3,30.9,8.9c8.9,5.9,15.9,14.1,21,24.6,5.1,10.5,7.6,22.7,7.6,36.5s-2.5,25.8-7.6,36.3c-5,10.5-12,18.7-21,24.6-8.9,5.9-19.2,8.9-30.9,8.9ZM1480.1,754.5c9.4,0,17.3-2.5,23.8-7.6,6.5-5,11.4-11.8,14.8-20.1,3.4-8.4,5.1-17.6,5.1-27.7s-1.7-19.3-5.1-27.8c-3.4-8.4-8.3-15.2-14.8-20.3-6.5-5.1-14.5-7.7-23.8-7.7s-17.3,2.6-23.8,7.7c-6.5,5.1-11.5,11.9-14.9,20.3-3.4,8.4-5.1,17.7-5.1,27.8s1.7,19.3,5.1,27.7c3.4,8.4,8.3,15.1,14.8,20.1,6.5,5,14.5,7.6,23.8,7.6Z"/>
    </g>
  </g>
</svg>