<?xml version="1.0" encoding="UTF-8"?>
<svg id="Layer_1" xmlns="http://www.w3.org/2000/svg" version="1.1" viewBox="0 0 2217.8 934.7">
  <!-- Generator: Adobe Illustrator 30.1.0, SVG Export Plug-In . SVG Version: 2.1.1 Build 136)  -->
  <defs>
    <style>
      .st0 {
        fill: #273239;
      }

      .st1 {
        fill: #ef233c;
      }

      .st2 {
        fill: #93989c;
      }
    </style>
  </defs>
  <path class="st1" d="M2038.9,294.6c-3.7-146.9-121.9-265.8-268.6-270.1V0h-106.4v934.7h106.4v-48.2c38.6,15.7,80.1,23.9,122.3,23.9,179.4,0,325.2-145.8,325.2-325.2s-72.4-236.9-179-290.5h0ZM1770.3,403.2c43.1-28.9,94.6-42.6,149.2-35.3-25.4,60.7-83.1,101.4-149.2,104.7v-69.3ZM1927.9,261.9c-53.4-6.5-107.9,1.5-157.7,22v-152.9c76.9,3.7,140.4,58.4,157.7,130.9h0ZM1892.6,804c-43.9,0-86.6-13.1-122.3-37.3v-187.8c110.5-3.2,207.2-70.9,248.3-172.7,56.6,39.8,93,105.8,93,179,0,120.6-98.4,218.8-219,218.8h0Z"/>
  <g>
    <g>
      <path class="st0" d="M85.1,542.8c-26,0-46.7-6.6-62.1-19.7S0,492.4,0,470.5s9.1-43.8,27.4-58.7c18.3-14.9,43.8-24.5,76.7-29l76.4-10.8v44.6l-63.6,9.7c-13.7,2-23.8,5.8-30.3,11.3-6.5,5.5-9.7,13-9.7,22.6s3.1,15,9.2,19.5c6.1,4.5,14.4,6.7,24.6,6.7,16.1,0,29.7-4.4,41-13.1,11.3-8.7,16.9-18.9,16.9-30.5l7.2,41c-7.5,19.5-19,34.2-34.4,44.1s-34.2,14.9-56.4,14.9h0ZM176.4,537.7c-2-7.5-3.5-15.5-4.4-24.1-.9-8.5-1.3-18.5-1.3-29.7h-2v-123.6c0-10.6-3.5-18.9-10.5-24.9-7-6-17.4-9-31-9s-23.3,2.2-31,6.7c-7.7,4.5-12.7,11-15.1,19.5H7.7c3.4-23.6,15.6-43.1,36.4-58.5,20.9-15.4,49.4-23.1,85.6-23.1s66.3,8.4,86.2,25.1c19.8,16.8,29.7,40.9,29.7,72.3v115.4c0,8.5.6,17.2,1.8,25.9,1.2,8.7,3.2,18,5.9,28h-76.9,0Z"/>
      <path class="st0" d="M367.7,648c-36.2,0-65.7-7.7-88.5-23.1-22.7-15.4-36.2-36.2-40.3-62.6h72.8c2.7,6.5,8.6,11.5,17.7,14.9,9.1,3.4,20.6,5.1,34.6,5.1,23.3,0,40.2-4.5,50.8-13.3,10.6-8.9,15.9-22.7,15.9-41.5v-56.9l4.1,1c-3.4,19.2-13.3,34.3-29.8,45.4-16.4,11.1-36.8,16.7-61,16.7s-43.5-5.4-60.8-16.2c-17.3-10.8-30.7-25.9-40.3-45.4s-14.4-42.4-14.4-68.7,5-49.9,14.9-69.8c9.9-19.8,23.9-35.2,41.8-46.2,18-10.9,38.9-16.4,62.8-16.4s44.7,5.8,60.3,17.4c15.5,11.6,24.7,27.5,27.4,47.7l-3.6.5v-60.5h75.4v250.3c0,37.6-12.5,67.3-37.4,89-25,21.7-59.2,32.6-102.6,32.6h0ZM370.8,474.6c18.1,0,32.8-6.2,44.1-18.7,11.3-12.5,16.9-30.3,16.9-53.6s-5.7-41.1-17.2-53.6c-11.5-12.5-26.4-18.7-44.9-18.7s-32.4,6.3-43.9,19c-11.5,12.7-17.2,30.6-17.2,53.8s5.7,41,17.2,53.3c11.5,12.3,26.4,18.5,44.9,18.5h0Z"/>
      <path class="st0" d="M641,542.8c-29.1,0-54.4-5.7-75.9-17.2-21.5-11.5-38.2-27.4-50-48-11.8-20.5-17.7-44.1-17.7-70.8s5.9-50.7,17.7-71c11.8-20.3,28.3-36.2,49.5-47.7,21.2-11.5,45.8-17.2,73.8-17.2s50.4,5.5,70.3,16.4c19.8,11,35.2,26.2,46.2,45.6s16.4,42.4,16.4,68.7-.2,10.5-.5,15.1c-.3,4.6-.9,9-1.5,13.1h-226.7v-50.8h164.6l-13.3,9.2c0-21.2-5-36.8-15.1-46.9-10.1-10.1-23.8-15.1-41.3-15.1s-35.8,6.8-46.9,20.5c-11.1,13.7-16.7,34.2-16.7,61.5s5.5,46.5,16.7,59.5c11.1,13,27.8,19.5,50,19.5s22.9-2,31.8-6.2c8.9-4.1,15.5-10.8,20-20h72.3c-8.5,25.3-23.2,45.2-43.8,59.8-20.7,14.5-47.3,21.8-79.8,21.8h0Z"/>
      <path class="st0" d="M761.1,537.7v-261.5h75.4v61.5h1.5v200h-76.9ZM943.1,537.7v-162.1c0-14.4-3.7-25.1-11-32.3-7.4-7.2-18-10.8-32.1-10.8s-22.7,2.7-32,8.2c-9.4,5.5-16.8,13-22,22.6-5.3,9.6-8,20.9-8,33.8l-6.7-63.1c8.5-19.1,21.1-34.4,37.7-45.9,16.6-11.5,37-17.2,61.3-17.2s51.3,8.1,66.7,24.4c15.4,16.2,23.1,38,23.1,65.4v176.9h-76.9,0Z"/>
      <path class="st0" d="M1212.4,537.7v-58l5.1,1c-3.4,18.8-13.6,33.8-30.5,45.1s-37.2,16.9-60.8,16.9-44.7-5.5-62.3-16.7c-17.6-11.1-31.2-26.8-40.8-46.9-9.6-20.2-14.4-43.9-14.4-71.3s4.9-51.8,14.9-72.3c9.9-20.5,23.8-36.4,41.8-47.7,17.9-11.3,38.9-16.9,62.8-16.9s45.2,5.8,60.8,17.4c15.6,11.6,24.7,27.5,27.4,47.7l-5.6.5v-168.2h76.9v369.2h-75.4ZM1150.8,481.3c18.1,0,32.8-6.4,44.1-19.2s16.9-31.2,16.9-55.1-5.7-42.3-17.2-55.1c-11.5-12.8-26.4-19.2-44.9-19.2s-32.4,6.5-43.8,19.5c-11.5,13-17.2,31.5-17.2,55.4s5.7,42.2,17.2,54.9c11.4,12.7,26.4,19,44.9,19h0Z"/>
      <path class="st0" d="M1371.3,542.8c-26,0-46.7-6.6-62.1-19.7-15.4-13.2-23.1-30.7-23.1-52.6s9.1-43.8,27.4-58.7c18.3-14.9,43.8-24.5,76.7-29l76.4-10.8v44.6l-63.6,9.7c-13.7,2-23.8,5.8-30.3,11.3-6.5,5.5-9.7,13-9.7,22.6s3.1,15,9.2,19.5c6.2,4.5,14.4,6.7,24.6,6.7,16.1,0,29.7-4.4,41-13.1,11.3-8.7,16.9-18.9,16.9-30.5l7.2,41c-7.5,19.5-19,34.2-34.4,44.1s-34.2,14.9-56.4,14.9h0ZM1462.6,537.7c-2.1-7.5-3.5-15.5-4.4-24.1-.9-8.5-1.3-18.5-1.3-29.7h-2.1v-123.6c0-10.6-3.5-18.9-10.5-24.9-7-6-17.4-9-31-9s-23.3,2.2-31,6.7c-7.7,4.5-12.7,11-15.1,19.5h-73.3c3.4-23.6,15.6-43.1,36.4-58.5,20.8-15.4,49.4-23.1,85.6-23.1s66.3,8.4,86.2,25.1c19.8,16.8,29.7,40.9,29.7,72.3v115.4c0,8.5.6,17.2,1.8,25.9,1.2,8.7,3.2,18,5.9,28h-76.9,0Z"/>
    </g>
    <g>
      <path class="st2" d="M823,766c-11.8,0-21.7-2.9-29.8-8.6s-13.5-13.8-16.5-24.3l2.7-.5v31.2h-18.4v-177h19.7v80.9l-2.7-.7c3.1-9.7,8.8-17.2,17.1-22.7s18.2-8.2,29.6-8.2,20.9,2.7,29.1,8.1,14.7,13,19.3,22.6c4.6,9.7,6.9,21,6.9,33.9s-2.4,24.6-7.1,34.4c-4.8,9.8-11.4,17.5-19.9,22.9-8.5,5.4-18.5,8.1-30,8.1h0ZM820.1,748.8c12.5,0,22.2-4.3,29.3-12.9s10.6-20.4,10.6-35.3-3.5-26.3-10.6-34.8c-7-8.4-16.8-12.7-29.3-12.7s-22.3,4.3-29.5,12.9c-7.2,8.6-10.8,20.4-10.8,35.3s3.6,26.2,10.8,34.7c7.2,8.5,17,12.8,29.5,12.8h0Z"/>
      <path class="st2" d="M932.2,766.2c-12.9,0-23.2-3.2-30.9-9.5-7.6-6.3-11.4-15-11.4-25.9s3.8-19.5,11.3-25.6,18.5-10.3,32.9-12.8l43.8-7.4v16.2l-40.8,6.4c-9.2,1.5-16.2,3.9-20.9,7.4-4.8,3.4-7.1,8.4-7.1,15s2.2,11.2,6.5,14.5c4.3,3.3,10.8,4.9,19.3,4.9s20-2.5,26.9-7.5c7-5,10.4-11.5,10.4-19.6l3.2,17.5c-2.6,8.4-7.8,14.8-15.4,19.4s-16.9,6.9-27.9,6.9h0ZM975.2,763.8c-.7-2.8-1.1-6-1.3-9.6-.2-3.6-.4-8.2-.4-13.8h-1.2v-60c0-9.5-2.2-16.5-6.5-21-4.3-4.5-11.3-6.8-21-6.8s-17.1,1.9-22.7,5.8c-5.7,3.8-8.8,9.3-9.5,16.3h-18.9c.8-12.1,5.9-21.6,15.2-28.5,9.3-6.9,21.6-10.3,36.6-10.3s27.1,3.7,34.7,11.1c7.5,7.4,11.3,18.4,11.3,33.2v60.2c0,3.6.2,7.3.7,11.2s1.1,7.9,2,12.2h-19Z"/>
      <path class="st2" d="M1017,763.8v-125.4h18.4v32h1.2v93.4h-19.7,0ZM1036.7,698.4l-3.2-29.8c2.9-10.7,8.2-18.8,15.7-24.3,7.5-5.6,16.2-8.4,26.1-8.4s6.9.3,8.4,1v18.9c-.8-.3-2-.5-3.4-.6-1.5,0-3.3-.1-5.4-.1-12.5,0-21.9,3.7-28.4,11.2-6.5,7.5-9.7,18.2-9.7,32.1h0Z"/>
      <path class="st2" d="M1096.9,763.8v-125.4h18.4v32h1.2v93.4h-19.7,0ZM1116.6,698.4l-3.2-29.8c2.9-10.7,8.2-18.8,15.7-24.3,7.5-5.6,16.2-8.4,26.1-8.4s6.9.3,8.4,1v18.9c-.8-.3-2-.5-3.4-.6-1.5,0-3.3-.1-5.4-.1-12.5,0-21.9,3.7-28.4,11.2-6.5,7.5-9.7,18.2-9.7,32.1h0Z"/>
      <path class="st2" d="M1223.8,766.2c-12,0-22.5-2.8-31.7-8.5-9.2-5.7-16.4-13.4-21.6-23.2s-7.9-21.2-7.9-33.9,2.6-24.1,7.8-33.8c5.2-9.8,12.4-17.3,21.8-22.7,9.3-5.4,20.1-8.1,32.2-8.1s21.8,2.5,30.4,7.6,15.2,12.2,19.9,21.4,7,20,7,32.5,0,3.2-.1,4.7c0,1.5-.3,3.1-.6,4.9h-103.5v-16.5h91.5l-6.4,9.1c0-15.1-3.3-26.7-10-34.8s-16-12.2-28.2-12.2-22.5,4.3-30.1,12.9-11.4,20.2-11.4,34.8,3.8,26.8,11.4,35.8,17.8,13.4,30.6,13.4,15.1-1.8,21.2-5.3c6.1-3.5,10.5-8.6,13.3-15.1h18.7c-4.1,11.5-10.9,20.5-20.5,27.2-9.6,6.6-20.8,10-33.6,10h0Z"/>
      <path class="st2" d="M1297.3,609.9v-23.1h22.6v23.1h-22.6ZM1298.8,763.8v-125.4h19.7v125.4h-19.7Z"/>
      <path class="st2" d="M1345.5,763.8v-125.4h18.4v32h1.2v93.4h-19.7,0ZM1365.2,698.4l-3.2-29.8c2.9-10.7,8.2-18.8,15.7-24.3,7.5-5.6,16.2-8.4,26.1-8.4s6.9.3,8.4,1v18.9c-.8-.3-2-.5-3.4-.6-1.5,0-3.3-.1-5.4-.1-12.5,0-21.9,3.7-28.4,11.2-6.5,7.5-9.7,18.2-9.7,32.1h0Z"/>
      <path class="st2" d="M1477.6,766.2c-12.3,0-23.1-2.9-32.5-8.6-9.3-5.7-16.6-13.6-21.8-23.5-5.2-9.9-7.8-21.1-7.8-33.6s2.6-23.8,7.9-33.4c5.2-9.7,12.5-17.3,21.8-22.9,9.3-5.6,20-8.4,32.3-8.4s23.3,2.8,32.6,8.4,16.5,13.2,21.6,22.9c5.2,9.7,7.8,20.8,7.8,33.4s-2.6,23.6-7.8,33.6c-5.2,9.9-12.4,17.8-21.6,23.5-9.3,5.7-20.1,8.6-32.6,8.6h0ZM1477.6,749.5c8.5,0,15.9-2.1,22.1-6.3s11.1-10,14.5-17.3c3.4-7.4,5.2-15.9,5.2-25.6,0-14.4-3.8-26-11.4-34.7s-17.8-13-30.4-13-22.5,4.3-30.2,13c-7.7,8.7-11.6,20.2-11.6,34.7s1.7,18.2,5.2,25.6c3.4,7.4,8.3,13.2,14.6,17.3,6.3,4.2,13.7,6.3,22,6.3Z"/>
    </g>
  </g>
</svg>