<svg xmlns="http://www.w3.org/2000/svg" version="1.1" id="Layer_1" viewBox="0 0 320 320" width="320" height="320"><defs>
    <style>
      .st0 {
        fill: #fff;
      }

      .st1 {
        fill: #64a1de;
      }
    </style>
  </defs><rect class="st1" width="320" height="320"></rect><path class="st0" d="M193.6,100.9c-1.3-50.3-41.7-91-92-92.5V0h-36.4v320h36.4v-16.5c13.2,5.4,27.4,8.2,41.9,8.2,61.4,0,111.3-49.9,111.3-111.3s-24.8-81.1-61.3-99.5h0ZM101.6,138c14.8-9.9,32.4-14.6,51.1-12.1-8.7,20.8-28.4,34.7-51.1,35.8v-23.8h0ZM155.6,89.7c-18.3-2.2-36.9.5-54,7.5v-52.3c26.3,1.3,48.1,20,54,44.8ZM143.5,275.3c-15,0-29.6-4.5-41.9-12.8v-64.3c37.8-1.1,70.9-24.3,85-59.1,19.4,13.6,31.8,36.2,31.8,61.3,0,41.3-33.7,74.9-75,74.9h0Z"></path></svg>